<svg xmlns="http://www.w3.org/2000/svg" version="1.1" xmlns:xlink="http://www.w3.org/1999/xlink" xmlns:svgjs="http://svgjs.dev/svgjs" width="800px" height="800px"><svg width="800px" height="800px" viewBox="0 0 32 32" fill="none" xmlns="http://www.w3.org/2000/svg">
<g clip-path="url(#clip0_901_2803)">
<path d="M31 2V30C31 30.55 30.55 31 30 31H2C1.45 31 1 30.55 1 30V2C1 1.45 1.45 1 2 1H30C30.55 1 31 1.45 31 2Z" fill="#FFC44D"></path>
<path d="M5 9H13M6.1719 25.833L11.8279 20.177M19 9H27M9 13V5M20.1719 25.833L25.8279 20.177M25.8281 25.833L20.1721 20.177M31 30C31 30.553 30.553 31 30 31H2C1.447 31 1 30.553 1 30V2C1 1.447 1.447 1 2 1H30C30.553 1 31 1.447 31 2V30Z" stroke="#000000" stroke-width="2" stroke-linecap="round" stroke-linejoin="round"></path>
</g>
<defs>
<clipPath id="SvgjsClipPath1036">
<rect width="32" height="32" fill="white"></rect>
</clipPath>
</defs>
</svg><style>@media (prefers-color-scheme: light) { :root { filter: none; } }
@media (prefers-color-scheme: dark) { :root { filter: none; } }
</style></svg>